<svg width="55" height="56" viewBox="0 0 25 26" fill="none" xmlns="http://www.w3.org/2000/svg">
<path d="M12.7867 0L0.667236 5.19406V20.8059L12.7867 26L24.9061 20.8059V5.19406L12.7867 0ZM11.8852 10.0018V23.6522L2.47012 19.6172V6.38285L12.7867 1.96148L16.0071 3.34166L6.0759 7.59789V17.8077H7.87878V8.78668L18.2955 4.32235L21.7162 5.7884L11.8852 10.0018ZM15.7915 12.0985L20.5991 9.99517V11.7981L15.7915 13.9014V12.0985ZM15.7915 15.4038L20.5991 13.3005V15.1034L15.7915 17.2067V15.4038ZM15.7915 18.7091L18.1953 17.6575V19.4603L15.7915 20.512V18.7091ZM23.1033 19.6171L13.6882 23.6521V11.1905L23.1033 7.15548V19.6171Z" fill="black" fill-opacity="0.6"/>
</svg>
