<svg width="56" height="56" viewBox="0 0 26 26" fill="none" xmlns="http://www.w3.org/2000/svg">
<path d="M2.84451 20.4856C5.18267 19.7222 7.659 18.7945 9.49801 17.1277C10.5054 17.7453 11.6382 18.1009 12.8421 18.1009C14.0454 18.1009 15.1782 17.7453 16.1862 17.1277C18.0239 18.7945 20.8224 19.7222 23.164 20.4856C20.4097 22.6446 16.3835 24.1429 12.8421 24.1429C9.30142 24.1429 5.59885 22.6446 2.84451 20.4856ZM18.6729 9.05009C18.6729 11.4168 17.8245 13.5696 16.3968 14.8251C16.2434 14.961 15.9904 15.1932 15.8001 15.3368C14.9384 15.9858 13.9199 16.3254 12.9391 16.3254C11.9924 16.3254 11.1098 16.0308 10.2712 15.4375C10.1589 15.358 10.075 15.275 9.88427 15.1125C8.32427 13.7834 7.475 11.4935 7.475 9.05009C7.475 2.60237 10.6706 1.85645 13.0736 1.85645C15.4773 1.85645 18.6729 2.60237 18.6729 9.05009ZM24.6433 19.2207C22.0848 18.6658 19.7273 17.4739 17.7567 15.7547C19.352 14.1146 20.369 11.669 20.369 8.93836C20.369 1.55055 16.3639 0 13.0046 0C6.91737 0 5.64154 4.86095 5.64154 8.93836C5.64154 11.6683 6.65642 14.1133 8.25172 15.754C6.27911 17.4746 3.91956 18.6671 1.36515 19.2207C1.14528 19.2684 0.690234 19.3883 0 19.5802C0.452007 20.2196 0.758796 20.6177 0.920368 20.7747C4.17844 23.9371 8.47067 25.679 13.0046 25.679C17.5398 25.679 21.8307 23.9371 25.0895 20.7747C25.2501 20.6177 25.5536 20.2196 26 19.5802C25.3163 19.3883 24.8641 19.2684 24.6433 19.2207Z" fill="black" fill-opacity="0.6"/>
</svg>
