<svg width="56" height="50" viewBox="0 0 26 20" fill="none" xmlns="http://www.w3.org/2000/svg">
<path fill-rule="evenodd" clip-rule="evenodd" d="M0.710939 12.1834C0.290208 12.1834 -0.0507812 11.8424 -0.0507812 11.4217C-0.0507812 11.001 0.290208 10.66 0.710939 10.66H4.31661V3.70313H0.711336C0.290803 3.70313 -0.0501862 3.36194 -0.0501862 2.94141C-0.0501862 2.52068 0.290803 2.17969 0.711336 2.17969H5.07833C5.49907 2.17969 5.84005 2.52068 5.84005 2.94141V10.66H8.4299V1.16406C8.4299 0.743333 8.77089 0.402344 9.19162 0.402344H19.5508C19.9716 0.402344 20.3125 0.743333 20.3125 1.16406V10.66H21.4551C23.9285 10.66 25.9493 12.6807 25.9493 15.1541C25.9493 17.6273 23.9283 19.6481 21.4551 19.6481H0.710939C0.290208 19.6481 -0.0507812 19.3071 -0.0507812 18.8864C-0.0507812 18.4658 0.290208 18.1246 0.710939 18.1246H21.4551C23.0875 18.1246 24.4258 16.7863 24.4258 15.1541C24.4258 13.5218 23.0875 12.1834 21.4551 12.1834H0.710939ZM16.8596 1.92578V4.6654C16.8596 5.26902 16.1933 5.62409 15.694 5.31127L14.3713 4.64655L12.984 5.34381C12.474 5.5995 11.8856 5.21725 11.886 4.6654L11.883 1.92578H9.95334V10.66H18.7891V1.92578H16.8596ZM15.3362 1.92578H13.4065V3.43375C14.4564 2.9059 14.2825 2.90412 15.3362 3.43375V1.92578ZM6.06877 13.2752C5.03112 13.2752 4.18986 14.1165 4.18986 15.1541C4.18986 16.1916 5.03112 17.033 6.06877 17.033C7.10622 17.033 7.94748 16.1916 7.94748 15.1541C7.94748 14.1165 7.10622 13.2752 6.06877 13.2752ZM6.3201 14.9026C6.09694 14.6796 5.7131 14.8377 5.7131 15.1541C5.7131 15.4703 6.09694 15.6284 6.3201 15.4055C6.45875 15.2668 6.45875 15.0415 6.3201 14.9026ZM13.5842 13.2752C12.5468 13.2752 11.7053 14.1165 11.7053 15.1541C11.7053 16.1916 12.5468 17.033 13.5842 17.033C14.6217 17.033 15.4631 16.1916 15.4631 15.1541C15.4631 14.1165 14.6217 13.2752 13.5842 13.2752ZM13.8355 14.9026C13.6126 14.6796 13.2287 14.8377 13.2287 15.1541C13.2287 15.4703 13.6126 15.6284 13.8355 15.4055C13.9744 15.2668 13.9744 15.0415 13.8355 14.9026ZM21.1 13.2752C20.0626 13.2752 19.2213 14.1165 19.2213 15.1541C19.2213 16.1916 20.0626 17.033 21.1 17.033C22.1377 17.033 22.979 16.1916 22.979 15.1541C22.979 14.1165 22.1377 13.2752 21.1 13.2752ZM21.3516 14.9026C21.1286 14.6796 20.7446 14.8377 20.7446 15.1541C20.7446 15.4703 21.1286 15.6284 21.3516 15.4055C21.4902 15.2668 21.4902 15.0415 21.3516 14.9026Z" fill="black" fill-opacity="0.6"/>
</svg>
