<svg width="26" height="26" viewBox="0 0 26 26" fill="none" xmlns="http://www.w3.org/2000/svg">
<path d="M20.5405 21.1377C21.8811 21.1377 22.9717 22.2282 22.9717 23.5688C22.9717 24.9094 21.8811 26 20.5405 26C19.1999 26 18.1093 24.9094 18.1093 23.5689C18.1093 22.2283 19.1999 21.1377 20.5405 21.1377ZM20.5405 24.3918C20.9943 24.3918 21.3634 24.0226 21.3634 23.5688C21.3634 23.115 20.9943 22.7459 20.5405 22.7459C20.0867 22.7459 19.7175 23.115 19.7175 23.5688C19.7175 24.0226 20.0867 24.3918 20.5405 24.3918ZM6.91005 21.1377C8.25063 21.1377 9.34123 22.2282 9.34123 23.5688C9.34123 24.9094 8.25057 26 6.91005 26C5.56952 26 4.47886 24.9094 4.47886 23.5689C4.47886 22.2283 5.56946 21.1377 6.91005 21.1377ZM6.91005 24.3918C7.36384 24.3918 7.73299 24.0226 7.73299 23.5688C7.73299 23.115 7.36384 22.7459 6.91005 22.7459C6.45625 22.7459 6.08711 23.115 6.08711 23.5688C6.08711 24.0226 6.45625 24.3918 6.91005 24.3918ZM21.2173 17.9259H25.2325V19.5341H2.48619V1.60825H0.673584V0H4.09443V17.9259H6.23324V4.55005H21.2173V17.9259ZM19.6091 17.9259V6.1583H17.4702V17.9259H19.6091ZM7.84149 6.1583V17.9259H15.862V6.1583H12.6559V9.7248H11.0476V6.1583H7.84149Z" fill="#00AFA4"/>
</svg>
